<svg width="36" height="36" viewBox="0 0 36 36" fill="none" xmlns="http://www.w3.org/2000/svg">
<g id="Phosphor icons / GameController">
<path id="Vector (Stroke)" fill-rule="evenodd" clip-rule="evenodd" d="M20.25 15.1875C20.25 14.5662 20.7537 14.0625 21.375 14.0625H25.875C26.4963 14.0625 27 14.5662 27 15.1875C27 15.8088 26.4963 16.3125 25.875 16.3125H21.375C20.7537 16.3125 20.25 15.8088 20.25 15.1875Z" fill="white"/>
<path id="Vector (Stroke)_2" fill-rule="evenodd" clip-rule="evenodd" d="M9 15.1875C9 14.5662 9.50368 14.0625 10.125 14.0625H14.625C15.2463 14.0625 15.75 14.5662 15.75 15.1875C15.75 15.8088 15.2463 16.3125 14.625 16.3125H10.125C9.50368 16.3125 9 15.8088 9 15.1875Z" fill="white"/>
<path id="Vector (Stroke)_3" fill-rule="evenodd" clip-rule="evenodd" d="M12.375 11.8125C12.9963 11.8125 13.5 12.3162 13.5 12.9375V17.4375C13.5 18.0588 12.9963 18.5625 12.375 18.5625C11.7537 18.5625 11.25 18.0588 11.25 17.4375V12.9375C11.25 12.3162 11.7537 11.8125 12.375 11.8125Z" fill="white"/>
<path id="Vector (Stroke)_4" fill-rule="evenodd" clip-rule="evenodd" d="M24.1874 6.70776C26.4252 6.70776 28.5713 7.59671 30.1537 9.17905C31.736 10.7614 32.6249 12.9075 32.6249 15.1453C32.6249 17.383 31.736 19.5291 30.1537 21.1115C28.572 22.6932 26.427 23.582 24.1902 23.5828C24.1893 23.5828 24.1884 23.5828 24.1874 23.5828L15.5485 23.6226L9.80646 29.9761L8.97182 29.2218L9.76895 30.0157C9.0077 30.7801 8.02218 31.2813 6.9561 31.4463C5.89001 31.6112 4.7991 31.4313 3.84242 30.9328C2.88574 30.4343 2.11332 29.6432 1.63778 28.6749C1.16225 27.7066 1.00847 26.6117 1.19886 25.5498L1.202 25.5331L3.50648 13.7156C3.85445 11.7672 4.87523 10.0026 6.391 8.7296C7.90908 7.45466 9.82701 6.75393 11.8094 6.74995M24.1874 6.70776V7.83276ZM24.1874 8.95776L11.8146 8.99995C10.3597 9.00272 8.95212 9.5169 7.83803 10.4526C6.72393 11.3882 5.97427 12.6858 5.72015 14.1183L4.61245 13.9218L5.71665 14.1372L3.41217 25.9546C3.30851 26.5421 3.39435 27.1475 3.65739 27.6831C3.92157 28.221 4.35069 28.6605 4.88218 28.9375C5.41367 29.2144 6.01973 29.3144 6.61201 29.2227C7.19604 29.1323 7.73655 28.8603 8.15699 28.4456L14.2122 21.7456C14.4243 21.511 14.7253 21.3764 15.0416 21.375L24.1823 21.3328L24.1874 21.3328C25.8285 21.3328 27.4023 20.6809 28.5627 19.5205C29.723 18.3601 30.3749 16.7863 30.3749 15.1453C30.3749 13.5042 29.723 11.9304 28.5627 10.77C27.4027 9.61009 25.8297 8.95825 24.1893 8.95776C24.1887 8.95776 24.1881 8.95776 24.1874 8.95776Z" fill="white"/>
<path id="Vector (Stroke)_5" fill-rule="evenodd" clip-rule="evenodd" d="M31.1729 12.7753C31.7828 12.6567 32.3733 13.0551 32.4919 13.665L34.7981 25.5338L34.8011 25.5498C34.9915 26.6117 34.8377 27.7066 34.3622 28.6749C33.8866 29.6432 33.1142 30.4343 32.1575 30.9328C31.2009 31.4313 30.1099 31.6112 29.0439 31.4462C27.9778 31.2812 26.9923 30.78 26.231 30.0157L27.0281 29.2218L26.1919 29.9744L20.1169 23.2244C19.7013 22.7626 19.7387 22.0512 20.2005 21.6356C20.6624 21.2199 21.3737 21.2574 21.7893 21.7192L27.8437 28.4463C28.264 28.8606 28.8043 29.1324 29.388 29.2227C29.9802 29.3143 30.5863 29.2144 31.1178 28.9374C31.6493 28.6605 32.0784 28.221 32.3426 27.683C32.6057 27.1473 32.6915 26.5419 32.5877 25.9543L30.2832 14.0942C30.1647 13.4843 30.563 12.8938 31.1729 12.7753Z" fill="white"/>
</g>
</svg>
