<svg width="10" height="14" viewBox="0 0 14 16" fill="none" xmlns="http://www.w3.org/2000/svg">
	<path opacity="0.5" d="M5.83205 0C6.20713 0 6.51117 0.36777 6.51117 0.821429C6.51117 1.24268 6.24901 1.58988 5.91125 1.63733L5.83205 1.64286H2.43642C2.08815 1.64286 1.8011 1.95996 1.76187 2.36849L1.7573 2.46429V12.3214C1.7573 12.7427 2.01947 13.0899 2.35722 13.1373L2.43642 13.1429H5.49249C5.86757 13.1429 6.17161 13.5106 6.17161 13.9643C6.17161 14.3856 5.90945 14.7327 5.57169 14.7802L5.49249 14.7857H2.43642C1.3514 14.7857 0.464474 13.7599 0.402506 12.4662L0.399048 12.3214V2.46429C0.399048 1.15191 1.24722 0.0791359 2.31671 0.00418322L2.43642 0H5.83205ZM9.70782 4.48867L11.6287 6.81202C11.8939 7.13279 11.8939 7.65292 11.6287 7.97369L9.70782 10.297C9.44262 10.6179 9.01266 10.6179 8.7474 10.297C8.4822 9.97625 8.4822 9.45612 8.7474 9.13535L9.50897 8.21428H5.83205C5.45697 8.21428 5.15292 7.84653 5.15292 7.39286C5.15292 6.93918 5.45697 6.57143 5.83205 6.57143H9.50897L8.7474 5.65034C8.4822 5.32956 8.4822 4.80946 8.7474 4.48867C9.01266 4.16788 9.44262 4.16788 9.70782 4.48867Z" fill="white"/>
</svg>